<?xml version="1.0" encoding="UTF-8"?><svg xmlns="http://www.w3.org/2000/svg" xmlns:xlink="http://www.w3.org/1999/xlink" width="30pt" zoomAndPan="magnify" viewBox="0 0 30 30.000001" height="30.000001pt" preserveAspectRatio="xMidYMid meet" version="1.2"><defs><clipPath xml:id="clip1" id="clip1"><path d="M 19 8 L 29.328125 8 L 29.328125 21 L 19 21 Z M 19 8 "/></clipPath><clipPath xml:id="clip2" id="clip2"><path d="M 1.023438 8 L 11 8 L 11 21 L 1.023438 21 Z M 1.023438 8 "/></clipPath><clipPath xml:id="clip3" id="clip3"><path d="M 1.023438 4.90625 L 29.328125 4.90625 L 29.328125 16 L 1.023438 16 Z M 1.023438 4.90625 "/></clipPath><clipPath xml:id="clip4" id="clip4"><path d="M 1.023438 15 L 29.328125 15 L 29.328125 23.777344 L 1.023438 23.777344 Z M 1.023438 15 "/></clipPath></defs><g xml:id="surface1" id="surface1"><g clip-rule="nonzero" clip-path="url(#clip1)"><path style=" stroke:none;fill-rule:nonzero;fill:rgb(31.369019%,31.369019%,31.369019%);fill-opacity:1;" d="M 29.328125 8.386719 L 29.328125 20.332031 L 19.785156 14.484375 Z M 29.328125 8.386719 "/></g><g clip-rule="nonzero" clip-path="url(#clip2)"><path style=" stroke:none;fill-rule:nonzero;fill:rgb(31.369019%,31.369019%,31.369019%);fill-opacity:1;" d="M 10.566406 14.484375 L 1.023438 20.332031 L 1.023438 8.386719 Z M 10.566406 14.484375 "/></g><g clip-rule="nonzero" clip-path="url(#clip3)"><path style=" stroke:none;fill-rule:nonzero;fill:rgb(31.369019%,31.369019%,31.369019%);fill-opacity:1;" d="M 29.277344 6.367188 C 29.144531 5.542969 28.441406 4.90625 27.558594 4.90625 L 2.792969 4.90625 C 1.910156 4.90625 1.207031 5.542969 1.074219 6.367188 L 15.175781 15.375 Z M 29.277344 6.367188 "/></g><g clip-rule="nonzero" clip-path="url(#clip4)"><path style=" stroke:none;fill-rule:nonzero;fill:rgb(31.369019%,31.369019%,31.369019%);fill-opacity:1;" d="M 15.664062 17.117188 C 15.515625 17.210938 15.347656 17.257812 15.175781 17.257812 C 15.007812 17.257812 14.839844 17.210938 14.6875 17.117188 L 12.1875 15.515625 L 1.078125 22.328125 C 1.214844 23.144531 1.914062 23.777344 2.792969 23.777344 L 27.558594 23.777344 C 28.4375 23.777344 29.136719 23.144531 29.273438 22.328125 L 18.164062 15.519531 Z M 15.664062 17.117188 "/></g></g></svg>