<?xml version="1.0" encoding="UTF-8"?><svg xmlns="http://www.w3.org/2000/svg" xmlns:xlink="http://www.w3.org/1999/xlink" width="30pt" zoomAndPan="magnify" viewBox="0 0 30 30.000001" height="30.000001pt" preserveAspectRatio="xMidYMid meet" version="1.2"><defs><clipPath xml:id="clip1" id="clip1"><path d="M 1.554688 1.070312 L 28.375 1.070312 L 28.375 27.890625 L 1.554688 27.890625 Z M 1.554688 1.070312 "/></clipPath></defs><g xml:id="surface1" id="surface1"><g clip-rule="nonzero" clip-path="url(#clip1)"><path style=" stroke:none;fill-rule:nonzero;fill:rgb(23.139954%,34.899902%,59.609985%);fill-opacity:1;" d="M 5.578125 1.070312 L 24.351562 1.070312 C 24.617188 1.070312 24.878906 1.097656 25.136719 1.148438 C 25.394531 1.199219 25.648438 1.277344 25.890625 1.375 C 26.136719 1.476562 26.367188 1.601562 26.585938 1.75 C 26.808594 1.894531 27.011719 2.0625 27.195312 2.25 C 27.382812 2.4375 27.550781 2.640625 27.699219 2.859375 C 27.84375 3.078125 27.96875 3.308594 28.070312 3.554688 C 28.171875 3.796875 28.246094 4.050781 28.296875 4.308594 C 28.347656 4.566406 28.375 4.828125 28.375 5.09375 L 28.375 23.867188 C 28.375 24.132812 28.347656 24.394531 28.296875 24.652344 C 28.246094 24.914062 28.171875 25.164062 28.070312 25.40625 C 27.96875 25.652344 27.84375 25.882812 27.699219 26.101562 C 27.550781 26.324219 27.382812 26.527344 27.195312 26.714844 C 27.011719 26.898438 26.808594 27.066406 26.585938 27.214844 C 26.367188 27.359375 26.136719 27.484375 25.890625 27.585938 C 25.648438 27.6875 25.394531 27.761719 25.136719 27.8125 C 24.878906 27.867188 24.617188 27.890625 24.351562 27.890625 L 5.578125 27.890625 C 5.3125 27.890625 5.050781 27.867188 4.792969 27.8125 C 4.535156 27.761719 4.28125 27.6875 4.039062 27.585938 C 3.792969 27.484375 3.5625 27.359375 3.34375 27.214844 C 3.121094 27.066406 2.917969 26.898438 2.734375 26.714844 C 2.546875 26.527344 2.378906 26.324219 2.234375 26.101562 C 2.085938 25.882812 1.960938 25.652344 1.859375 25.40625 C 1.757812 25.164062 1.683594 24.914062 1.632812 24.652344 C 1.582031 24.394531 1.554688 24.132812 1.554688 23.867188 L 1.554688 5.09375 C 1.554688 4.828125 1.582031 4.566406 1.632812 4.308594 C 1.683594 4.050781 1.757812 3.796875 1.859375 3.554688 C 1.960938 3.308594 2.085938 3.078125 2.234375 2.859375 C 2.378906 2.640625 2.546875 2.4375 2.734375 2.25 C 2.917969 2.0625 3.121094 1.894531 3.34375 1.75 C 3.5625 1.601562 3.792969 1.476562 4.039062 1.375 C 4.28125 1.277344 4.535156 1.199219 4.792969 1.148438 C 5.050781 1.097656 5.3125 1.070312 5.578125 1.070312 Z M 5.578125 1.070312 "/></g><path style=" stroke:none;fill-rule:nonzero;fill:rgb(100%,100%,100%);fill-opacity:1;" d="M 16.589844 24.957031 L 16.589844 9.296875 C 16.589844 8.195312 16.902344 7.460938 18.421875 7.460938 L 20.414062 7.460938 L 20.414062 4.160156 C 20.046875 4.109375 18.894531 4.003906 17.53125 4.003906 C 14.703125 4.003906 12.765625 5.734375 12.765625 8.929688 L 12.765625 24.957031 M 20.253906 11.652344 L 9.515625 11.652344 L 9.515625 15.425781 L 19.785156 15.425781 "/></g></svg>