<?xml version="1.0" standalone="no"?>
<!DOCTYPE svg PUBLIC "-//W3C//DTD SVG 20010904//EN"
 "http://www.w3.org/TR/2001/REC-SVG-20010904/DTD/svg10.dtd">
<svg version="1.0" xmlns="http://www.w3.org/2000/svg"
 width="300.000000pt" height="300.000000pt" viewBox="0 0 300.000000 300.000000"
 preserveAspectRatio="xMidYMid meet">

<g transform="translate(0.000000,300.000000) scale(0.034404,-0.027523)"
fill="#505050" stroke="none">
<path d="M4060 10885 c-230 -23 -506 -79 -685 -140 -684 -232 -1207 -662
-1544 -1270 -136 -245 -255 -576 -310 -865 -6 -30 -15 -80 -21 -110 -37 -191
-66 -573 -57 -755 22 -424 215 -1004 642 -1920 45 -97 317 -640 355 -710 15
-27 58 -108 95 -180 146 -279 409 -755 592 -1070 38 -66 105 -181 148 -255
172 -299 548 -917 801 -1323 232 -370 270 -426 284 -426 8 0 44 46 79 102 624
990 1068 1735 1456 2437 59 107 121 220 138 250 148 268 536 1031 646 1270
326 709 506 1213 578 1615 33 190 19 625 -32 935 -136 836 -552 1514 -1190
1938 -139 93 -333 197 -480 257 -458 190 -1001 269 -1495 220z m545 -2005
c533 -142 849 -664 725 -1198 -82 -348 -366 -642 -706 -732 -187 -49 -341 -49
-529 1 -481 126 -806 631 -720 1119 76 433 406 762 832 830 95 15 306 4 398
-20z"/>
<path d="M2700 3705 c-47 -7 -128 -18 -180 -24 -52 -7 -160 -23 -240 -37 -773
-131 -1352 -340 -1749 -631 -89 -66 -260 -234 -318 -313 -126 -173 -196 -366
-209 -576 -55 -875 929 -1625 2561 -1953 244 -49 579 -99 810 -121 61 -5 157
-15 215 -20 58 -5 255 -15 437 -22 524 -18 1119 9 1583 73 795 110 1421 286
1950 550 298 149 511 294 699 474 232 223 364 434 428 687 23 90 27 124 27
263 0 178 -17 271 -74 410 -238 570 -996 977 -2200 1179 -80 13 -183 29 -230
35 -47 6 -134 18 -193 26 -188 26 -181 28 -286 -71 -50 -47 -91 -90 -91 -94 0
-10 10 -12 190 -35 687 -90 1278 -272 1653 -508 222 -141 361 -295 423 -472
25 -71 25 -241 0 -315 -74 -220 -246 -412 -529 -590 -484 -303 -1265 -531
-2112 -614 -363 -36 -471 -41 -905 -41 -434 0 -542 5 -905 41 -849 83 -1629
311 -2114 616 -404 254 -599 561 -540 850 15 77 81 204 143 278 289 349 1030
636 1946 755 179 23 190 25 190 35 0 4 -41 47 -91 94 l-92 86 -56 -1 c-31 -1
-94 -7 -141 -14z"/>
</g>
</svg>
