<?xml version="1.0" encoding="UTF-8"?><svg xmlns="http://www.w3.org/2000/svg" xmlns:xlink="http://www.w3.org/1999/xlink" width="30" zoomAndPan="magnify" viewBox="0 0 30 30.000001" height="30.000001" preserveAspectRatio="xMidYMid meet" version="1.0"><defs><clipPath id="clip-0"><path d="M 0.484375 0 L 29.515625 0 L 29.515625 29.03125 L 0.484375 29.03125 Z M 0.484375 0 " clip-rule="nonzero"/></clipPath><clipPath id="clip-1"><path d="M 7.242188 0.597656 L 29.5 0.597656 L 29.5 21.054688 L 7.242188 21.054688 Z M 7.242188 0.597656 " clip-rule="nonzero"/></clipPath><clipPath id="clip-2"><path d="M 0.5 0.234375 L 29.0625 0.234375 L 29.0625 28.542969 L 0.5 28.542969 Z M 0.5 0.234375 " clip-rule="nonzero"/></clipPath></defs><g clip-path="url(#clip-0)"><path fill="rgb(100%, 100%, 100%)" d="M 0.484375 0 L 29.515625 0 L 29.515625 36.289062 L 0.484375 36.289062 Z M 0.484375 0 " fill-opacity="1" fill-rule="nonzero"/><path fill="rgb(100%, 100%, 100%)" d="M 0.484375 0 L 29.515625 0 L 29.515625 29.03125 L 0.484375 29.03125 Z M 0.484375 0 " fill-opacity="1" fill-rule="nonzero"/><path fill="rgb(94.509888%, 94.509888%, 94.509888%)" d="M 0.484375 0 L 29.515625 0 L 29.515625 29.03125 L 0.484375 29.03125 Z M 0.484375 0 " fill-opacity="1" fill-rule="nonzero"/></g><g clip-path="url(#clip-1)"><path fill="rgb(31.369019%, 31.369019%, 31.369019%)" d="M 7.777344 11.097656 C 7.15625 11.710938 7.097656 12.6875 7.640625 13.371094 L 13.441406 20.695312 C 13.601562 20.898438 13.847656 21.019531 14.109375 21.019531 L 15.082031 21.019531 C 15.347656 21.019531 15.597656 20.898438 15.757812 20.6875 L 29.125 3.496094 C 29.757812 2.675781 29.570312 1.496094 28.707031 0.917969 C 27.917969 0.386719 26.847656 0.554688 26.261719 1.300781 L 15.335938 15.242188 C 15.007812 15.65625 14.386719 15.679688 14.03125 15.289062 L 10.285156 11.164062 C 9.621094 10.433594 8.476562 10.40625 7.777344 11.097656 " fill-opacity="1" fill-rule="nonzero"/></g><g clip-path="url(#clip-2)"><path fill="rgb(31.369019%, 31.369019%, 31.369019%)" d="M 26.320312 14.390625 C 26.320312 20.699219 21.140625 25.832031 14.777344 25.832031 C 8.410156 25.832031 3.230469 20.699219 3.230469 14.390625 C 3.230469 8.078125 8.410156 2.945312 14.777344 2.945312 C 17.300781 2.945312 19.636719 3.753906 21.539062 5.121094 L 23.21875 2.972656 C 20.785156 1.195312 17.855469 0.234375 14.777344 0.234375 C 10.964844 0.234375 7.378906 1.707031 4.679688 4.382812 C 1.984375 7.054688 0.5 10.609375 0.5 14.390625 C 0.5 18.167969 1.984375 21.722656 4.679688 24.398438 C 7.378906 27.070312 10.964844 28.542969 14.777344 28.542969 C 18.589844 28.542969 22.175781 27.070312 24.871094 24.398438 C 27.570312 21.722656 29.054688 18.167969 29.054688 14.390625 C 29.054688 12.078125 28.5 9.855469 27.453125 7.863281 L 25.558594 10.300781 C 26.050781 11.570312 26.320312 12.949219 26.320312 14.390625 " fill-opacity="1" fill-rule="nonzero"/></g></svg>