<?xml version="1.0" encoding="UTF-8"?><svg xmlns="http://www.w3.org/2000/svg" xmlns:xlink="http://www.w3.org/1999/xlink" width="30pt" zoomAndPan="magnify" viewBox="0 0 30 30.000001" height="30.000001pt" preserveAspectRatio="xMidYMid meet" version="1.2"><defs><clipPath xml:id="clip1" id="clip1"><path d="M 1.355469 0.871094 L 28.933594 0.871094 L 28.933594 28.453125 L 1.355469 28.453125 Z M 1.355469 0.871094 "/></clipPath></defs><g xml:id="surface1" id="surface1"><g clip-rule="nonzero" clip-path="url(#clip1)"><path style=" stroke:none;fill-rule:nonzero;fill:rgb(31.369019%,31.369019%,31.369019%);fill-opacity:1;" d="M 6.910156 12.816406 C 9.117188 17.152344 12.664062 20.699219 17.007812 22.90625 L 20.378906 19.527344 C 20.800781 19.105469 21.40625 18.980469 21.933594 19.152344 C 23.648438 19.71875 25.496094 20.023438 27.402344 20.023438 C 28.253906 20.023438 28.933594 20.707031 28.933594 21.554688 L 28.933594 26.917969 C 28.933594 27.769531 28.253906 28.453125 27.402344 28.453125 C 13.015625 28.453125 1.355469 16.792969 1.355469 2.402344 C 1.355469 1.554688 2.042969 0.871094 2.886719 0.871094 L 8.25 0.871094 C 9.101562 0.871094 9.78125 1.554688 9.78125 2.402344 C 9.78125 4.3125 10.089844 6.15625 10.65625 7.875 C 10.824219 8.402344 10.703125 9.007812 10.28125 9.429688 Z M 6.910156 12.816406 "/></g></g></svg>