<?xml version="1.0" encoding="UTF-8"?><svg xmlns="http://www.w3.org/2000/svg" xmlns:xlink="http://www.w3.org/1999/xlink" width="30pt" zoomAndPan="magnify" viewBox="0 0 30 30.000001" height="30.000001pt" preserveAspectRatio="xMidYMid meet" version="1.2"><defs><clipPath xml:id="clip1" id="clip1"><path d="M 1.210938 0.726562 L 28.789062 0.726562 L 28.789062 28.304688 L 1.210938 28.304688 Z M 1.210938 0.726562 "/></clipPath></defs><g xml:id="surface1" id="surface1"><g clip-rule="nonzero" clip-path="url(#clip1)"><path style=" stroke:none;fill-rule:nonzero;fill:rgb(33.329773%,67.449951%,93.328857%);fill-opacity:1;" d="M 28.777344 14.523438 C 28.777344 22.136719 22.605469 28.304688 14.992188 28.304688 C 7.382812 28.304688 1.210938 22.136719 1.210938 14.523438 C 1.210938 6.910156 7.382812 0.738281 14.992188 0.738281 C 22.605469 0.738281 28.777344 6.910156 28.777344 14.523438 Z M 28.777344 14.523438 "/></g><path style=" stroke:none;fill-rule:nonzero;fill:rgb(94.509888%,94.898987%,94.898987%);fill-opacity:1;" d="M 23.4375 10.644531 C 22.847656 10.90625 22.210938 11.085938 21.542969 11.164062 C 22.222656 10.753906 22.746094 10.109375 22.992188 9.339844 C 22.355469 9.71875 21.652344 9.992188 20.902344 10.140625 C 20.300781 9.5 19.445312 9.101562 18.496094 9.101562 C 16.675781 9.101562 15.199219 10.574219 15.199219 12.394531 C 15.199219 12.652344 15.230469 12.902344 15.285156 13.144531 C 12.546875 13.007812 10.121094 11.695312 8.496094 9.703125 C 8.210938 10.1875 8.050781 10.753906 8.050781 11.359375 C 8.050781 12.503906 8.632812 13.511719 9.515625 14.101562 C 8.972656 14.085938 8.46875 13.9375 8.023438 13.6875 C 8.023438 13.703125 8.023438 13.714844 8.023438 13.730469 C 8.023438 15.328125 9.15625 16.65625 10.664062 16.960938 C 10.390625 17.035156 10.097656 17.078125 9.796875 17.078125 C 9.585938 17.078125 9.378906 17.054688 9.175781 17.019531 C 9.597656 18.328125 10.8125 19.28125 12.253906 19.304688 C 11.128906 20.191406 9.707031 20.714844 8.164062 20.714844 C 7.898438 20.714844 7.632812 20.703125 7.378906 20.671875 C 8.835938 21.605469 10.566406 22.152344 12.425781 22.152344 C 18.488281 22.152344 21.800781 17.128906 21.800781 12.777344 C 21.800781 12.632812 21.796875 12.492188 21.792969 12.351562 C 22.4375 11.886719 22.996094 11.304688 23.4375 10.644531 Z M 23.4375 10.644531 "/></g></svg>